<?xml version="1.0" encoding="UTF-8"?><svg id="Layer_2" xmlns="http://www.w3.org/2000/svg" viewBox="0 0 86.4 86.4"><defs><style>.cls-1{fill:none;}.cls-2{fill:#fff;}</style></defs><g id="Layer_1-2"><path class="cls-2" d="m33.94,47.59c-2.97-.21-5.41-.39-8.15-.58v-14.56c2.67-.19,5.1-.37,8.15-.59,0-3.3-.04-6.42,0-9.53.13-9.2,3.91-13.64,12.93-14.51,4.42-.43,8.92-.07,13.72-.07v12.81c-3.76,1.14-7.8,1.62-10.82,3.62-1.32.88-.58,4.87-.81,7.91h11.65c-.22,4.66-.25,8.91-.78,13.1-.1.82-2.08,1.82-3.29,1.99-2.25.32-4.59.09-7.43.09v31.51h-15.17v-31.2Z"/><rect class="cls-1" width="86.4" height="86.4"/></g></svg>