<?xml version="1.0" encoding="UTF-8"?><svg id="Layer_2" xmlns="http://www.w3.org/2000/svg" viewBox="0 0 86.4 86.4"><defs><style>.cls-1{fill:none;}.cls-2{fill:#fff;}</style></defs><g id="Layer_1-2"><path class="cls-2" d="m74.62,43.37c0,5.83.09,11.66-.02,17.48-.15,7.69-5.37,13.46-13.03,13.64-12.15.28-24.32.27-36.46-.03-7.7-.19-13.04-5.76-13.19-13.55-.23-11.82-.19-23.65,0-35.47.11-7.19,4.48-12.83,11.72-13.21,13.08-.69,26.25-.74,39.33-.03,7.59.41,11.54,6.01,11.65,13.68.08,5.83.02,11.66.02,17.48Zm-8.71.23s.05,0,.07,0c0-3.33.08-6.66-.02-9.98-.22-8-4.17-12.62-12.03-13.07-7.29-.42-14.64-.38-21.93.06-7.01.43-11.27,5.14-11.46,12.1-.19,6.98-.19,13.98,0,20.96.18,6.24,3.52,10.97,9.62,11.5,8.69.77,17.55.75,26.25.02,5.96-.5,9.06-4.95,9.45-11.11.22-3.48.04-6.98.04-10.48Z"/><path class="cls-2" d="m43.37,24.18c3.48,0,6.98-.21,10.44.05,5.54.41,8.45,3.34,8.64,8.95.23,6.64.21,13.29,0,19.93-.17,5.52-3.1,8.79-8.61,9.08-6.94.37-13.94.42-20.87-.01-6-.38-8.84-3.7-9.06-9.77-.21-5.81-.16-11.63-.04-17.44.16-7.52,2.93-10.34,10.54-10.84,2.97-.19,5.97-.03,8.95-.03,0,.02,0,.05,0,.07Zm.24,7.59c-6.83-.08-11.94,4.65-12.07,11.14-.12,6.24,5.37,11.89,11.58,11.92,6.44.03,11.7-5.22,11.69-11.68,0-6.58-4.67-11.31-11.2-11.39Z"/><path class="cls-2" d="m51.44,43.19c-.04,4.19-3.81,7.9-8.07,7.95-4.18.05-8.09-3.67-8.19-7.78-.11-4.47,3.7-8.21,8.27-8.11,4.34.09,8.03,3.77,7.99,7.95Z"/><rect class="cls-1" width="86.4" height="86.4"/></g></svg>