<?xml version="1.0" encoding="UTF-8"?><svg id="Layer_2" xmlns="http://www.w3.org/2000/svg" viewBox="0 0 86.4 86.4"><defs><style>.cls-1{fill:none;}.cls-2{fill:#fff;}</style></defs><g id="Layer_1-2"><path class="cls-2" d="m47.36,73.14h-13.53v-39.5c9.29-1.95,12.86-1.21,13.92,2.69,2.56-1.37,4.98-3.3,7.73-4.02,9.12-2.37,17.72,2.86,18.64,12.26.92,9.32.2,18.81.2,28.59h-13.32c0-5.12,0-10.18,0-15.25,0-2.66.14-5.34-.1-7.98-.35-3.75-1.68-6.87-6.23-6.96-4.02-.08-7.04,2.73-7.2,7.28-.22,6.15-.08,12.31-.1,18.46,0,1.32,0,2.64,0,4.42Z"/><path class="cls-2" d="m12.94,33.22h13.23v40.01h-13.23v-40.01Z"/><path class="cls-2" d="m27.35,20.52c.03,4.38-3.05,7.29-7.69,7.27-4.12-.01-7.66-3.13-7.85-6.9-.19-3.82,4.1-7.83,8.26-7.71,4.03.11,7.25,3.37,7.28,7.34Z"/><rect class="cls-1" width="86.4" height="86.4"/></g></svg>