<?xml version="1.0" encoding="UTF-8"?><svg id="Layer_2" xmlns="http://www.w3.org/2000/svg" viewBox="0 0 86.4 86.4"><defs><style>.cls-1{fill:none;}.cls-2{fill:#fff;}</style></defs><g id="Layer_1-2"><path class="cls-2" d="m39.51,56.17c-3.35,7.84-6.61,15.49-9.88,23.14-.8-.16-1.59-.32-2.39-.48-.24-3.46-.98-6.97-.59-10.35.64-5.42,2.01-10.76,3.11-16.12,1.15-5.63,2.87-11.02,1.85-17.09-.52-3.1,1.25-7.14,3.2-9.89,1.07-1.51,5.02-2.18,7.02-1.45,1.65.6,3.38,3.88,3.26,5.86-.23,3.9-1.77,7.71-2.69,11.58-.82,3.44-1.95,7.25,2.07,9.34,4.09,2.12,8.02.77,10.63-2.78,5.45-7.42,7.14-15.83,3.94-24.51-3.06-8.31-15.72-11.16-25.25-6.21-8.65,4.5-12.05,15.26-7.99,23.94,1.02,2.18.59,5.04.9,8.39-6.15-1.29-8.68-4.56-10.22-8.76-3.61-9.86.48-21.45,9.82-28.11,12.06-8.61,29.42-7.09,39.21,3.42,10.59,11.37,5.7,35.38-8.49,41.73-5.84,2.61-11.5,2.01-17.51-1.65Z"/><rect class="cls-1" width="86.4" height="86.4"/></g></svg>