<?xml version="1.0" encoding="UTF-8"?><svg id="Layer_2" xmlns="http://www.w3.org/2000/svg" viewBox="0 0 86.4 86.4"><defs><style>.cls-1{fill:none;}.cls-2{fill:#fff;}</style></defs><g id="Layer_1-2"><path class="cls-2" d="m35.68,35.6v10.06c-1.31.35-2.71.69-4.09,1.1-5.74,1.74-8.57,6.27-7.69,12.22.8,5.4,5.23,8.89,11,8.68,5.86-.21,10.31-4.08,10.53-9.92.31-8.31.12-16.65.12-24.97,0-8.29,0-16.57,0-25.17h10.47c2.01,9.61,7.89,15.38,18.02,16.99,0,2.15,0,4.12,0,6.1,0,6.32-.7,7.12-6.86,5.24-3.69-1.12-7-3.48-11.05-5.58,0,1.79.02,3.82,0,5.86-.08,7.99.38,16.03-.37,23.95-1.13,11.96-12.51,20.08-24.75,18.42-10.87-1.47-19.66-12.36-18.59-23.02,1.24-12.24,11.47-21.15,23.25-19.96Z"/><rect class="cls-1" width="86.4" height="86.4"/></g></svg>