<?xml version="1.0" encoding="UTF-8"?><svg id="Layer_2" xmlns="http://www.w3.org/2000/svg" viewBox="0 0 86.4 86.4"><defs><style>.cls-1{fill:none;}.cls-2{fill:#fff;}</style></defs><g id="Layer_1-2"><path class="cls-2" d="m9.29,66.08c5.92-1.67,11.8-3.32,17.69-4.98-4.55-3.83-8.32-7.01-12.09-10.18.28-.46.55-.92.83-1.38,1.05-.11,2.1-.22,3.82-.41-5.01-3.48-9.11-7.17-9.01-13.88,1.41.12,2.61.22,4.51.38-4.8-5.6-5.86-11.35-2.79-18.41,8.16,8.38,17.09,14.18,29.01,14.68.15-2.03.18-3.66.41-5.26,1.34-9,11.31-14.53,19.76-11q6.86,2.87,14.2.53c-1.41,2.51-2.45,4.38-3.7,6.61,1.67-.31,3.07-.58,5.17-.97-.93,1.36-1.38,2.64-2.29,3.25-3.97,2.65-4.34,6.59-4.72,10.86-2.58,28.7-36.41,45.38-60.82,30.16Z"/><rect class="cls-1" width="86.4" height="86.4"/></g></svg>