<?xml version="1.0" encoding="UTF-8"?><svg id="Layer_2" xmlns="http://www.w3.org/2000/svg" viewBox="0 0 86.4 86.4"><defs><style>.cls-1{fill:none;}.cls-2{fill:#fff;}</style></defs><g id="Layer_1-2"><path class="cls-2" d="m42.74,68.25c-7,0-13.99.06-20.99-.02-7.82-.09-13.25-5.28-13.43-13.09-.19-7.99-.2-15.99.01-23.98.19-7.34,5.23-12.67,12.65-12.82,14.65-.29,29.31-.29,43.96-.07,7.37.11,12.81,5.69,13.08,13.11.28,7.82.26,15.66.04,23.48-.23,7.93-5.92,13.28-13.83,13.37-7.16.08-14.32.02-21.49,0Zm-6.22-12.52c7.22-4.16,13.64-7.87,20.54-11.85-7.09-4.06-13.62-7.8-20.54-11.76v23.61Z"/><rect class="cls-1" width="86.4" height="86.4"/></g></svg>